<svg xmlns="http://www.w3.org/2000/svg" viewBox="0 0 456.57 456.38"><defs><style>.cls-1{fill:none;stroke:#fff;stroke-width:6px;}.cls-1,.cls-5{stroke-miterlimit:10;}.cls-2{fill:#fff;}.cls-3{fill:#eeb548;}.cls-4{fill:#89c3e8;}.cls-5{fill:#291a03;stroke:#000;stroke-width:0.25px;}.cls-6{fill:#f85f1b;}</style></defs><title>Asset 3</title><g id="Layer_2" data-name="Layer 2"><g id="Layer_3" data-name="Layer 3"><rect class="cls-1" x="3" y="3" width="450.57" height="450.38" rx="53.73"/><path class="cls-2" d="M78,130.16c-2.59.94-3.37,4-5.19,8.51A98.55,98.55,0,0,1,68.47,148c.76,1.61,1.92,4,3.47,6.8,4,7.26,6.9,10.64,8.68,13.6,5,8.32,4.24,18.19,3.49,22.11-2.45,12.94-16.49,23.72-34.64,27.25l0,25.52a72.14,72.14,0,0,1,12.14,5.09c3.33,1.77,16.19,8.6,20.81,17,6.32,11.46-.26,30.31-15.56,45.94Q73,321.54,79,331.74A85,85,0,0,1,92.9,330c6.55-.26,18.72-.75,26,3.38,10.73,6.1,14.5,24.31,10.44,44.22l17.34,10.2,3.47,1.69c2.05-1.28,5-3.09,8.66-5.11,8.54-4.72,13.13-7.26,19.06-8.52.8-.17,8.65-1.77,15.6,0,12,3,21.19,16.05,24.3,32.3l26,0a76.26,76.26,0,0,1,10.39-17c4.28-5.3,10.07-12.47,17.32-15.33,12-4.72,28.3,2.16,41.62,15.28l19.06-11.93a50.31,50.31,0,0,1,0-27.21c2.1-7.4,3.5-13,8.65-17,6.34-4.9,16.36-5,36.4-5.14h3.47l13.85-17a71.47,71.47,0,0,1-10.42-17c-4-9.28-6.56-15.19-5.22-22.11,2.78-14.25,20.26-23.3,31.18-28.95,1.44-.74,2.65-1.32,3.47-1.7l0-25.52a57.82,57.82,0,0,1-15.6-6.79c-4.47-2.79-15.5-9.7-19.09-20.39-4.15-12.39,2.35-27.9,15.57-39.14L384,132.45a69,69,0,0,1-8.67,1.71c-9.59,1.28-18.67,2.63-27.73-1.67-1.78-.85-10.16-4.83-13.88-13.6C332.45,116,332,113.3,331.92,107a160.42,160.42,0,0,1,1.71-25.52L314.55,69.57a84.07,84.07,0,0,1-10.39,8.52c-7.59,5.26-13.42,9.3-20.79,10.22-12.26,1.53-24.54-6.1-31.22-15.28a37.45,37.45,0,0,1-7-22.11l-27.74,0a33.1,33.1,0,0,1,0,8.51c-.45,3.47-2.42,14.41-12.11,22.12-10.52,8.38-22.84,7.14-26,6.83-19.47-2-29.88-18.21-31.22-20.39L129.08,79.94c.23,3,.55,7.43.88,12.75,1,15.49,2.87,20.25,0,25.52-2.47,4.59-6.71,6.69-10.39,8.51C107,133,88,131.87,81.46,130.16A5.72,5.72,0,0,0,78,130.16Z"/><ellipse class="cls-3" cx="231.11" cy="229.73" rx="111.65" ry="112.39" transform="translate(-1 1.01) rotate(-0.25)"/><path class="cls-4" d="M124.59,198.86l.32,73-16.53.07L98.43,238.8l.14,33.2-15.77.07-.32-73L98.25,199,109,231.81l-.15-32.88Z"/><path class="cls-5" d="M183.88,241.36q0,11-.45,15.59a17.57,17.57,0,0,1-3.18,8.38,17.32,17.32,0,0,1-7.3,5.85,26.47,26.47,0,0,1-10.74,2.08,27.14,27.14,0,0,1-10.47-1.87,17.51,17.51,0,0,1-10.88-14.05,154.72,154.72,0,0,1-.61-15.79l-.05-12.49q-.06-11,.44-15.59a17.59,17.59,0,0,1,3.19-8.38,17.32,17.32,0,0,1,7.3-5.85,26.47,26.47,0,0,1,10.74-2.08A27.21,27.21,0,0,1,172.34,199a17.56,17.56,0,0,1,10.88,14.05,157.78,157.78,0,0,1,.61,15.79Zm-19-23.91c0-3.4-.21-5.57-.59-6.52a2.22,2.22,0,0,0-2.31-1.41,2.56,2.56,0,0,0-2.26,1.16q-.78,1.15-.76,6.79l.15,34.11c0,4.23.21,6.85.55,7.84a2.25,2.25,0,0,0,2.41,1.48,2.32,2.32,0,0,0,2.45-1.73c.36-1.14.52-3.86.5-8.16Z"/><path class="cls-5" d="M237.15,198.36l.07,14.62L226,213l.25,58.42-18.85.08-.26-58.42-11.15,0-.07-14.61Z"/><path class="cls-5" d="M249.9,198.31l31.44-.14.06,14.62-12.58.05.06,13.85,11.78-.05.06,13.89-11.78.05.07,16.06,13.84-.06.06,14.62-32.7.14Z"/><path class="cls-5" d="M296.46,198.11,328.4,198l.06,14.61-13.08.06.06,13.85,11.65-.05.06,13.89-11.65,0,.13,30.67-18.85.09Z"/><path class="cls-6" d="M383.6,197.72l-13.55,46.66.12,26.44-17.47.07-.12-26.43-13.46-46.54,17.32-.08q4.15,21.38,4.71,28.76,1.52-11.68,5.13-28.8Z"/><text/></g></g></svg>