<svg xmlns="http://www.w3.org/2000/svg" viewBox="0 0 598.78 579.67"><defs><style>.cls-1{fill:#fff;}</style></defs><title>Asset 1</title><g id="Layer_2" data-name="Layer 2"><g id="Layer_3" data-name="Layer 3"><path class="cls-1" d="M136.56,61.93a110.82,110.82,0,0,0-28,8c-9.34,4.08-16.12,7-22,14-1.35,1.6-4,5-10,21-7,18.78-4.82,18-8,24-6.52,12.18-13,10.89-33,30-6.92,6.6-12.57,11.49-15,20-1.62,5.66-1.08,11.77,0,24,.69,7.9,1.52,10.8,2,20,.38,7.31.55,11,0,14-1.06,5.83-3.18,8.22-11,21-6.06,9.91-9.11,14.93-10,18a43.64,43.64,0,0,0,0,23c1.33,5.14,3.55,9.1,8,17,7.24,12.89,8.78,11.92,11,18,3,8.09,2.21,15.25,1,27-1.18,11.49-2.95,12.57-3,22,0,7.49-.07,13,3,19,2.93,5.74,7.2,9,15,15,5.83,4.48,6.41,3.94,13,9,5.91,4.55,9.57,7.36,13,12,3,4.07,4.33,7.71,7,15,3.73,10.2,3.2,12.46,7,23,2.65,7.37,4,11.14,7,15a36.67,36.67,0,0,0,14,11c5.9,2.63,6.82,1.11,17,4a120.84,120.84,0,0,1,16,6c7.29,3.16,10.94,4.74,14,7,2.18,1.62,3.07,2.63,13,15,6.28,7.83,8.7,10.88,13,15s6.89,5.85,9,7a39.67,39.67,0,0,0,12,4,47.91,47.91,0,0,0,17,1c7.08-1,7.3-2.9,15-4a53.92,53.92,0,0,1,14,0c8.11,1,13.91,3.66,19,6,7.74,3.57,7.56,4.79,18,10,6.73,3.36,10.19,5.06,15,6a43.39,43.39,0,0,0,16,0c5.36-1,9.31-3,17-7,10-5.18,10.42-6.66,18-10,5.65-2.49,10-4.39,16-5,3.34-.33,4.46,0,19,2,12.76,1.75,15,1.91,17,2,7.77.34,11.89.52,17-1,6.25-1.86,10.06-5.1,17-11,4.73-4,9.57-8.14,14-15,3.19-4.95,3.45-7.11,7-11,2.19-2.39,5.24-5,11-8,9-4.69,13.31-4.36,29-9,13.25-3.92,16.59-6.05,18-7a40.69,40.69,0,0,0,13-14c3.4-6.18,2.19-8.14,6-23,2.65-10.36,4-15.63,7-20,3.53-5.21,7.69-8.14,16-14,9.69-6.83,12.92-7,18-13a55.89,55.89,0,0,0,7-11c2.43-4.63,4.79-9.12,6-15,1.44-7,.54-12.57-1-22-1.6-9.77-2.81-9.92-3-16a46.53,46.53,0,0,1,3-18c2.07-5.27,3.28-5.21,10-16,4.93-7.92,7.42-12,9-17a40.2,40.2,0,0,0,2-17c-.93-8.17-4.51-13.8-11-24s-7.65-9.22-10-15c-4-9.81-3.31-19.26-3-23,.59-7.16,2-6.9,3-16a68.36,68.36,0,0,0,0-19c-.93-6.06-1.85-12.13-6-18-2.64-3.73-4.51-4.45-15-12-9.54-6.87-14.31-10.3-17-13a63.07,63.07,0,0,1-14-22c-3.86-10.25-1.88-13.43-6-24-2.33-6-4.34-11-9-16-6.06-6.5-13-9.11-18-11-6.46-2.43-12.37-3.41-22-5-10-1.64-11.15-1.14-14-3-4.4-2.86-4.27-5.78-11-16a92.66,92.66,0,0,0-9-12c-3.39-3.73-8.23-9.06-16-13a49.82,49.82,0,0,0-24-5c-7.3.15-8.11,1.65-20,3-7.06.81-12.48,1.6-18,1a45.64,45.64,0,0,1-5.53-1c-11.61-2.71-19-7.83-28.47-12-9-4-15.83-7-25.27-6.93-11.13.07-21.41,4.37-22.73,4.93a121.8,121.8,0,0,0-11.13,5.23c-4.11,2.07-6,3.24-8.48,4.26-.37.15-2.09.82-4.39,1.51A82.16,82.16,0,0,1,230.29,19c-2.28-.05-5.52-.36-12-1-6.23-.61-7-.83-10.73-1.07-6.16-.39-9.24-.58-13.27.07a40.75,40.75,0,0,0-12,4,43.73,43.73,0,0,0-9.73,6.93,107,107,0,0,0-8,9c-4.9,5.85-5.22,6.75-9,11-3.42,3.85-5.17,5.83-8,8A41,41,0,0,1,136.56,61.93Z"/></g></g></svg>