<svg xmlns="http://www.w3.org/2000/svg" viewBox="0 0 64.34 63.07"><defs><style>.cls-1,.cls-3{fill:#eeb548;}.cls-1{stroke:#fff;stroke-width:3px;}.cls-1,.cls-5{stroke-miterlimit:10;}.cls-2{fill:#fff;}.cls-4{fill:#89c3e8;}.cls-5{fill:#291a03;stroke:#000;stroke-width:0.25px;}.cls-6{fill:#f85f1b;}</style></defs><title>Asset 12</title><g id="Layer_2" data-name="Layer 2"><g id="Layer_11" data-name="Layer 11"><rect class="cls-1" x="1.5" y="1.5" width="59.79" height="60.07" rx="21.57"/><path class="cls-2" d="M11.19,18.46c-.33.13-.43.53-.67,1.13A11.38,11.38,0,0,1,10,20.84c.1.22.25.54.45.91.52,1,.89,1.42,1.12,1.81a4.63,4.63,0,0,1,.46,3c-.32,1.73-2.14,3.17-4.48,3.64v3.4a9.49,9.49,0,0,1,1.57.68,7.28,7.28,0,0,1,2.69,2.27c.82,1.52,0,4-2,6.12l1.57,2.72a11,11,0,0,1,1.79-.22,6.79,6.79,0,0,1,3.36.45c1.39.81,1.88,3.24,1.35,5.89l2.25,1.36.44.23c.27-.17.65-.41,1.12-.68a8.85,8.85,0,0,1,2.47-1.14,5,5,0,0,1,2,0c1.55.41,2.73,2.14,3.14,4.31h3.36A9.82,9.82,0,0,1,34,53.27a6.16,6.16,0,0,1,2.24-2.05c1.55-.63,3.66.29,5.38,2l2.46-1.59a6.92,6.92,0,0,1,0-3.63,3.89,3.89,0,0,1,1.12-2.27c.82-.65,2.11-.66,4.7-.69h.45c.6-.75,1.2-1.51,1.79-2.27a9.49,9.49,0,0,1-1.34-2.26,5.13,5.13,0,0,1-.68-2.95c.36-1.9,2.62-3.11,4-3.86l.45-.23v-3.4a7.48,7.48,0,0,1-2-.91,5.7,5.7,0,0,1-2.47-2.72c-.53-1.65.31-3.72,2-5.22-.44-.83-.89-1.66-1.34-2.49a8.55,8.55,0,0,1-1.12.22A5.94,5.94,0,0,1,46,18.77,3.64,3.64,0,0,1,44.25,17,3.93,3.93,0,0,1,44,15.37a22,22,0,0,1,.22-3.4l-2.46-1.59a11.62,11.62,0,0,1-1.35,1.13,6,6,0,0,1-2.68,1.37,4.58,4.58,0,0,1-4-2,5.12,5.12,0,0,1-.9-2.95H29.23a5.35,5.35,0,0,1,0,1.14,4.65,4.65,0,0,1-1.57,3,4.5,4.5,0,0,1-3.36.91,5.71,5.71,0,0,1-4-2.72L17.8,11.76c0,.41.07,1,.11,1.7.13,2.07.37,2.7,0,3.41A2.74,2.74,0,0,1,16.57,18a8.35,8.35,0,0,1-4.93.46A.73.73,0,0,0,11.19,18.46Z"/><ellipse class="cls-3" cx="30.99" cy="31.74" rx="14.43" ry="14.99"/><path class="cls-4" d="M17.22,27.62l0,9.74H15.12L13.84,33l0,4.43h-2l0-9.74h2L15.2,32l0-4.39Z"/><path class="cls-5" d="M24.88,33.29c0,1,0,1.67-.05,2.08a2.39,2.39,0,0,1-.42,1.12,2.19,2.19,0,0,1-.94.78,3.51,3.51,0,0,1-1.39.28,3.61,3.61,0,0,1-1.35-.25,2.3,2.3,0,0,1-1-.77,2.43,2.43,0,0,1-.44-1.11c-.05-.4-.07-1.1-.08-2.1V31.65c0-1,0-1.67.05-2.08a2.39,2.39,0,0,1,.42-1.12,2.34,2.34,0,0,1,.94-.78A3.35,3.35,0,0,1,22,27.4a3.25,3.25,0,0,1,1.35.25,2.21,2.21,0,0,1,1,.76,2.43,2.43,0,0,1,.44,1.11c.05.4.07,1.1.08,2.1ZM22.43,30.1a3.6,3.6,0,0,0-.07-.87.3.3,0,0,0-.3-.19.32.32,0,0,0-.29.16,2.18,2.18,0,0,0-.1.9l0,4.55a4.23,4.23,0,0,0,.07,1.05.29.29,0,0,0,.31.2.31.31,0,0,0,.32-.23,5.87,5.87,0,0,0,.06-1.09Z"/><path class="cls-5" d="M31.77,27.56v2H30.33l0,7.79H27.93l0-7.79H26.45v-2Z"/><path class="cls-5" d="M33.42,27.55l4.06,0v1.95H35.86v1.84h1.52v1.85H35.88v2.14h1.79v2l-4.23,0Z"/><path class="cls-5" d="M39.44,27.52l4.13,0v1.95H41.88v1.85H43.4v1.85H41.9l0,4.09H39.48Z"/><path class="cls-6" d="M50.7,27.47,49,33.69l0,3.53H46.71l0-3.53L45,27.5h2.24c.36,1.9.56,3.18.61,3.83q.2-1.56.66-3.84Z"/><text/></g></g></svg>