<svg xmlns="http://www.w3.org/2000/svg" viewBox="0 0 13.94 13.35"><defs><style>.cls-1{fill:none;stroke:#ffd32a;stroke-miterlimit:10;}</style></defs><title>Asset 2</title><g id="Layer_2" data-name="Layer 2"><g id="Layer_6" data-name="Layer 6"><path class="cls-1" d="M2.81,11.71c.08-.63.16-1.53.3-2.42A1.45,1.45,0,0,0,2.69,8C2.08,7.33,1.47,6.68.9,6S.36,5,1.29,4.77,3,4.4,3.78,4.26a1.64,1.64,0,0,0,1.29-.94c.38-.73.78-1.45,1.22-2.15.55-.89.8-.89,1.36,0,.44.69.84,1.42,1.22,2.15a1.64,1.64,0,0,0,1.29.93c.83.14,1.66.32,2.48.52s1,.48.41,1.22a14.59,14.59,0,0,1-1.5,1.64,2.15,2.15,0,0,0-.66,2.2,18.2,18.2,0,0,1,.23,2.33c0,.66-.18.82-.8.59s-1.35-.58-2-.88c-1.47-.66-1.16-.66-2.63,0l-1.76.79-.09,0C3,13,2.81,12.88,2.81,11.71Z"/></g></g></svg>