<svg xmlns="http://www.w3.org/2000/svg" viewBox="0 0 198.16 189.5"><defs><style>.cls-1{fill:#ffd32a;}</style></defs><title>Asset 2</title><g id="Layer_2" data-name="Layer 2"><g id="Layer_6" data-name="Layer 6"><path class="cls-1" d="M34.7,171.16c1.21-9.62,2.63-23.35,4.76-37,1.25-8-.66-14.35-6.17-20.23C24,104,14.69,94,6,83.44-3.39,72-2.1,68.18,12.22,64.73c12.58-3,25.33-5.54,38.12-7.58C59.56,55.68,65.8,51.29,70.17,43c5.9-11.16,12.2-22.15,18.94-32.83,8.6-13.61,12.45-13.61,20.86.07,6.61,10.75,12.73,21.84,18.46,33.1,4.23,8.32,10.33,12.89,19.56,14.5,12.76,2.22,25.46,4.94,38,8.13,14.3,3.63,15.54,7.46,6.07,18.77-7.26,8.69-14.67,17.44-23.12,24.91-10.67,9.43-12.73,20.29-10.42,33.64,2,11.77,2.8,23.81,3.34,35.76.45,10-2.84,12.44-12.3,8.85-10.56-4-20.74-9-31-13.68C96.05,164,100.88,164,78.26,173.93l-27,11.86c-.45.2-.9.4-1.37.56C36.88,190.86,34.43,189.08,34.7,171.16Z"/></g></g></svg>