<svg xmlns="http://www.w3.org/2000/svg" viewBox="0 0 200.47 159.87"><defs><style>.cls-1{fill:#89c3e8;}</style></defs><title>Asset 3</title><g id="Layer_2" data-name="Layer 2"><g id="Layer_6" data-name="Layer 6"><path class="cls-1" d="M99.91,159.81c-25.52,0-51,.17-76.54-.07C7.25,159.58.22,152.55.13,136.23q-.3-56,.09-111.95C.34,7.27,7.26.72,24.57.42,35.9.21,47.29,1,58.57.2,73-.79,85.16,1.56,94.76,14c3,3.93,10.49,6,16,6.17,22.18.69,44.4.13,66.6.36,16.47.17,23,6.82,23,23.3q.18,46.05,0,92.11c-.06,17.3-6.36,23.66-24,23.79C150.93,160,125.42,159.81,99.91,159.81ZM20.07,19.48V139.74H180.31V39.49c-25.24,0-49.36-.52-73.43.25-10.45.33-18-2.68-24.77-10.46-3.52-4.06-8.64-9-13.34-9.35C52.9,18.76,36.89,19.48,20.07,19.48Z"/><path class="cls-1" d="M20.07,19.48c16.82,0,32.83-.72,48.7.45,4.7.34,9.82,5.29,13.34,9.35,6.75,7.78,14.32,10.79,24.77,10.46,24.07-.77,48.19-.25,73.43-.25V139.74H20.07Z"/></g></g></svg>