<svg xmlns="http://www.w3.org/2000/svg" viewBox="0 0 194.68 186.66"><defs><style>.cls-1{fill:#f85f1b;}</style></defs><title>Asset 4</title><g id="Layer_2" data-name="Layer 2"><g id="Layer_6" data-name="Layer 6"><path class="cls-1" d="M43.3,71.77c0-15.69-.14-31.39,0-47.08C43.53,8.08,50.06.66,66.85.4Q119-.41,171.09.39c16.46.25,23.1,7,23.29,23q.6,49.28,0,98.57c-.21,16-8,23-24.94,23.07q-50.58.34-101.17,0c-17.32-.13-24.72-7.68-24.92-24.66C43.15,104.14,43.3,88,43.3,71.77Zm131.05,52.86c0-20.73.22-39.79-.08-58.85-.22-14.61,4.7-35.38-3.19-42.2-9.06-7.83-29.72-3.71-45.35-4-20.24-.42-40.49-.11-60.56-.11V124.63Z"/><path class="cls-1" d="M.12,42.68H20.18V166.32H149.7c.34,7.16.6,12.7,1,20.34H94.86q-36,0-72-.07c-13.21,0-22.29-6-22.49-18.92C-.26,126.57.12,85.45.12,42.68Z"/><path class="cls-1" d="M174.35,124.63H65.17V19.44c20.07,0,40.32-.31,60.56.11,15.63.32,36.29-3.8,45.35,4,7.89,6.82,3,27.59,3.19,42.2C174.57,84.84,174.35,103.9,174.35,124.63Z"/></g></g></svg>