<svg xmlns="http://www.w3.org/2000/svg" viewBox="0 0 184.35 163.95"><defs><style>.cls-1{fill:#ec5040;}</style></defs><title>Asset 6</title><g id="Layer_2" data-name="Layer 2"><g id="Layer_6" data-name="Layer 6"><path class="cls-1" d="M92.51,23.46c3-3,5.73-5.9,8.67-8.66C118-1,141.84-4.53,159.94,6.09c18.85,11.07,28.36,34.78,22.86,57.52-4.11,17-13.65,31-24.77,44.09-18.39,21.63-40.52,39-63.36,55.58-1.08.78-3.65.93-4.67.19-27.31-19.93-53.9-40.68-73.61-68.72C7.36,81.91.49,68.06,0,51.94-.58,31,11.28,11.61,29.13,3.76S68.4.52,83.73,15.24C86.51,17.91,89.36,20.51,92.51,23.46Z"/></g></g></svg>