<svg xmlns="http://www.w3.org/2000/svg" viewBox="0 0 47.08 46.86"><defs><style>.cls-1{fill:#f3ab3c;}</style></defs><title>Asset 13</title><g id="Layer_2" data-name="Layer 2"><g id="Layer_6" data-name="Layer 6"><path class="cls-1" d="M0,23.15A22.44,22.44,0,0,1,5,9,23,23,0,0,1,23.93,0,22.45,22.45,0,0,1,38,5a22.86,22.86,0,0,1,9.07,18.77,22.16,22.16,0,0,1-4.79,13.84,23.13,23.13,0,0,1-18.48,9.28,22.51,22.51,0,0,1-11.94-3.09A23.44,23.44,0,0,1,0,23.15Zm44.13.49A20.54,20.54,0,0,0,23.88,2.92,20.08,20.08,0,0,0,7.18,11,19.6,19.6,0,0,0,3,23.73a20.59,20.59,0,0,0,41.18-.09Z"/><path class="cls-1" d="M23.51,37.91c-.69,0-1.38-.06-2.07-.15a17.53,17.53,0,0,1-2.15-.47,11.92,11.92,0,0,1-1.76-.64,18.27,18.27,0,0,1-1.91-1,17.41,17.41,0,0,1-1.68-1.17,12,12,0,0,1-1.32-1.24c-.5-.54-.95-1.13-1.39-1.71a13.05,13.05,0,0,1-.78-1.16,1.71,1.71,0,0,1,.07-1.48,1.52,1.52,0,0,1,1.27-.68,1.45,1.45,0,0,1,1.22.68c.36.51.69,1,1.05,1.51A9.36,9.36,0,0,0,15.56,32a11.9,11.9,0,0,0,1.52,1.12,10.55,10.55,0,0,0,1.56.82c.41.16.81.32,1.22.46a11.85,11.85,0,0,0,1.87.45,11.2,11.2,0,0,0,3.37,0,8.55,8.55,0,0,0,1.82-.39,15.82,15.82,0,0,0,2.22-.89,9.22,9.22,0,0,0,2.11-1.4c.44-.41.88-.82,1.29-1.26s.68-.8,1-1.21A7.62,7.62,0,0,0,34,29a1.4,1.4,0,0,1,1.73-.68,1.43,1.43,0,0,1,.87,2.07,5.91,5.91,0,0,1-.77,1.17,10.31,10.31,0,0,1-.72,1c-.35.41-.72.79-1.1,1.17a11.28,11.28,0,0,1-.89.8c-.32.26-.66.5-1,.73s-.8.54-1.21.79a6.76,6.76,0,0,1-.93.47c-.72.3-1.43.6-2.17.84a13.41,13.41,0,0,1-1.67.36,11.81,11.81,0,0,1-1.33.18c-.43,0-.88,0-1.32,0Z"/><path class="cls-1" d="M13.24,17.58a2.92,2.92,0,0,1,2.87-3,2.71,2.71,0,0,1,1.9.62,3,3,0,0,1,1.12,2.12,3,3,0,0,1-2.76,3.12A2.94,2.94,0,0,1,13.24,17.58Z"/><path class="cls-1" d="M33.84,17.52a3,3,0,1,1-5.9-.19,3,3,0,0,1,5.9.19Z"/></g></g></svg>