<svg xmlns="http://www.w3.org/2000/svg" viewBox="0 0 242.32 242.24"><defs><style>.cls-1{fill:#20bf6b;}</style></defs><title>Asset 1</title><g id="Layer_2" data-name="Layer 2"><g id="Layer_6" data-name="Layer 6"><path class="cls-1" d="M198.31,28c-3,2.61-5.88,5.09-8.69,7.68a252,252,0,0,0-35,40.6,400,400,0,0,0-38.91,68.82c-.16.37-.39.72-.76,1.39L89.45,97.19,37.32,128.78c.62.29,1,.47,1.34.62,10.35,4.15,19.7,10,28.61,16.64,18.67,13.86,34.93,30.22,49.71,48.1.34.41.7.79,1.16,1.3,1.85-3.06,3.55-6,5.34-8.85A423,423,0,0,1,159,138.7a354.64,354.64,0,0,1,34.24-35.85c7.16-6.41,14.56-12.5,23.14-16.95,2.61-1.35,5.4-2.35,8.28-3.58a73.92,73.92,0,0,1-6-32.53,110.77,110.77,0,0,1,20,41.91c8.08,34,3.09,66.07-16,95.37A121,121,0,1,1,30.65,40.8C77.8-12,153.35-10.56,198.31,28Z"/></g></g></svg>