<svg xmlns="http://www.w3.org/2000/svg" viewBox="0 0 158.12 180.37"><defs><style>.cls-1{fill:#747d8c;}</style></defs><title>Asset 7</title><g id="Layer_2" data-name="Layer 2"><g id="Layer_6" data-name="Layer 6"><path class="cls-1" d="M82,0c7.15,1.72,13.7,4.54,17.93,10.91a35.72,35.72,0,0,1,4.19,8.55c.72,2.24,1.66,2.86,3.89,2.84,10.55-.08,21.1-.13,31.65.07s18.66,8.16,18.5,18.07c-.16,10.35-8.2,18.13-18.91,18.14q-60.29,0-120.58,0C7.73,58.57.08,51.22,0,40.88-.09,30.23,7.35,22.54,18.27,22.34c10.14-.19,20.29-.14,30.44-.05,2.53,0,3.9-.34,4.78-3.24C56.77,8.16,64.72,2.34,75.54,0ZM78.63,49.7q29.64,0,59.28,0c6.58,0,11.37-4.29,11.24-9.9-.12-5.25-4.75-9.11-11-9.19H21.55a25.48,25.48,0,0,0-4.79.24A9.46,9.46,0,0,0,9.49,43.61c1.57,4,5,6.08,10.26,6.08Q49.18,49.72,78.63,49.7ZM62,21.86H95.14A16.91,16.91,0,0,0,78.93,9,17.44,17.44,0,0,0,62,21.86Z"/><path class="cls-1" d="M37.86,180.37c-4.55-2.35-9.57-4.1-13.52-7.2-6.36-5-8.72-12.31-8.74-20.26-.06-26.31,0-52.62,0-78.93,0-3.16.47-6.07,4.58-6.08,2.45,0,4.08,1.15,4.2,3.8.06,1.34.06,2.67.06,4,0,25,.28,50-.1,74.91-.21,13.64,9,21.3,21,21,22.83-.54,45.68-.14,68.52-.16,11.64,0,19-7.32,19-19,.05-25.64,0-51.28,0-76.92,0-5.93,1.09-7.74,4.55-7.67,3.29.07,4.32,1.84,4.32,7.5,0,24.31-.43,48.62.17,72.91.36,14.59-5.1,27.71-23.13,32.09Z"/><path class="cls-1" d="M74.33,116.21V81.74c0-1.07,0-2.14,0-3.2.11-2.69,1.48-4.3,4.2-4.37,2.92-.09,4.41,1.53,4.59,4.4,0,.8.06,1.6.06,2.4q0,35.07,0,70.14c0,1.32.24,3-.46,3.87-1.14,1.36-3,3-4.5,2.89s-2.82-2.15-3.75-3.65c-.55-.88-.16-2.34-.16-3.55Z"/><path class="cls-1" d="M51.54,116.23c0,12,.07,24-.08,36a7.76,7.76,0,0,1-1.85,4.92c-2.13,2.19-5.81,1-6.63-2a16.66,16.66,0,0,1-.33-4.36q0-34.61,0-69.21c0-.93,0-1.87,0-2.8.17-3,1.69-4.76,4.81-4.58,3,.17,4.08,2,4.07,4.85-.05,7.2,0,14.4,0,21.6Z"/><path class="cls-1" d="M105.91,115.81c0-11.87,0-23.74,0-35.6,0-4.36,1.38-6.26,4.49-6.07,4,.24,4.39,3,4.38,6.26q-.06,35.59,0,71.21a14.84,14.84,0,0,1,0,2c-.35,2.71-1.73,4.49-4.63,4.49s-4.2-1.84-4.2-4.68Q105.93,134.61,105.91,115.81Z"/></g></g></svg>