<svg xmlns="http://www.w3.org/2000/svg" viewBox="0 0 250.41 166.23"><defs><style>.cls-1{fill:#82ccdd;}</style></defs><title>Asset 5</title><g id="Layer_2" data-name="Layer 2"><g id="Layer_6" data-name="Layer 6"><path class="cls-1" d="M0,101.72C.54,98.36,1,95,1.62,91.66a61.81,61.81,0,0,1,50.85-49A6.81,6.81,0,0,0,57.85,39C70.57,17.49,89.36,4.38,114,.83c41.39-5.95,77.51,20.59,86.78,58.63.62,2.52,1.44,3.64,4.34,3.93,21.73,2.21,41,20.74,44.16,42.19.32,2.14.75,4.27,1.13,6.41v4.4a12.48,12.48,0,0,0-.6,2.33,46.16,46.16,0,0,1-6.41,21.06c-9.85,16.55-24.33,26.12-43.73,26.26-46.21.33-92.41.13-138.62.06a58,58,0,0,1-9.92-1c-24.59-4.31-44.84-24.26-49.5-48.71C1,113,.54,109.55,0,106.12Zm129.9,44.22h34.23q17.24,0,34.47,0A31.48,31.48,0,0,0,228.69,106C224.78,92.34,212.92,83.49,197.91,83c-3.81-.14-7.63-.46-11.41-.91a2.93,2.93,0,0,1-1.92-1.87c-1.08-4.58-2-9.21-2.91-13.82a57.3,57.3,0,0,0-51-45.88C112.1,18.76,96.1,24.91,83.11,38.53c-5.72,6-9.34,13.3-13,20.55a3.89,3.89,0,0,1-3.6,2.36c-3.57.24-7.14.52-10.67,1.05C33.32,65.88,17.48,87.4,21,110.09A42,42,0,0,0,62.42,146C84.91,145.74,107.41,146,129.9,145.94Z"/><path class="cls-1" d="M85,93.21,125.25,53l40.05,40.1c-.42,0-1.09.12-1.76.12-6.76,0-13.53.1-20.29,0-2.37,0-3.24.48-3.19,3.07.18,8.56,0,17.12.11,25.67,0,2-.57,2.69-2.64,2.66q-12.33-.15-24.68,0c-2.1,0-2.63-.71-2.61-2.68.08-8.64,0-17.28.08-25.92,0-2.1-.51-2.84-2.71-2.79-6.76.13-13.53,0-20.29,0Z"/></g></g></svg>